<?xml version="1.0" standalone="no"?>
<!DOCTYPE svg PUBLIC "-//W3C//DTD SVG 20010904//EN"
 "http://www.w3.org/TR/2001/REC-SVG-20010904/DTD/svg10.dtd">
<svg version="1.0" xmlns="http://www.w3.org/2000/svg"
 width="200.000000pt" height="72.000000pt" viewBox="0 0 200.000000 72.000000"
 preserveAspectRatio="xMidYMid meet">

<g transform="translate(0.000000,72.000000) scale(0.100000,-0.100000)"
fill="#000000" stroke="none">
<path d="M254 670 c-162 -23 -207 -92 -207 -320 0 -170 27 -242 108 -284 36
-19 57 -21 210 -21 157 0 173 2 212 22 87 47 106 104 101 308 -3 129 -6 156
-24 190 -23 45 -69 80 -123 95 -54 14 -208 20 -277 10z m228 -170 c26 -27 29
-35 23 -68 -3 -20 -13 -48 -22 -61 -11 -17 -12 -26 -4 -34 15 -15 14 -69 -1
-102 -19 -43 -56 -55 -168 -55 -96 0 -100 1 -100 22 0 26 50 310 56 320 3 5
46 8 95 8 87 0 92 -1 121 -30z"/>
<path d="M346 425 c-11 -29 -6 -36 22 -33 19 2 27 9 27 23 0 25 -40 33 -49 10z"/>
<path d="M320 285 c0 -26 9 -29 48 -19 13 4 22 14 22 25 0 15 -7 19 -35 19
-31 0 -35 -3 -35 -25z"/>
<path d="M770 365 l0 -105 46 0 c63 0 84 13 84 53 0 18 -5 38 -11 44 -8 8 -8
17 1 32 24 46 -13 81 -86 81 l-34 0 0 -105z m98 73 c32 -32 -3 -72 -56 -66
-23 3 -27 8 -30 41 -3 37 -3 37 35 37 22 0 44 -5 51 -12z m6 -94 c19 -18 19
-20 6 -45 -8 -14 -21 -19 -55 -19 -44 0 -45 1 -45 33 0 19 3 37 7 40 12 13 72
7 87 -9z"/>
<path d="M952 368 l-2 -108 55 0 c30 0 55 5 55 10 0 6 -22 10 -50 10 l-49 0
-4 98 -3 97 -2 -107z"/>
<path d="M1106 457 c-37 -27 -42 -141 -8 -179 21 -25 86 -24 112 2 16 16 20
33 20 80 0 51 -4 65 -25 85 -27 28 -71 33 -99 12z m88 -23 c19 -19 22 -124 4
-142 -22 -22 -76 -15 -94 13 -19 29 -15 104 6 130 16 20 64 19 84 -1z"/>
<path d="M1295 445 c-20 -19 -25 -34 -25 -75 0 -51 12 -88 34 -102 6 -4 32 -8
59 -8 l47 0 0 50 c0 48 -1 50 -27 49 -17 -1 -21 -3 -10 -6 12 -3 17 -15 17
-39 0 -33 -1 -34 -40 -34 -48 0 -60 18 -60 89 0 64 17 81 78 81 34 0 43 3 32
10 -28 18 -80 11 -105 -15z"/>
<path d="M1491 433 c-6 -21 -19 -68 -30 -105 -19 -67 -13 -97 8 -38 9 27 14
30 51 30 37 0 43 -3 53 -30 14 -38 30 -39 21 -2 -33 133 -50 177 -71 180 -18
3 -24 -4 -32 -35z m55 -34 c20 -66 19 -69 -27 -69 -34 0 -40 3 -35 18 3 9 10
36 16 60 14 53 29 50 46 -9z"/>
<path d="M1642 364 c1 -60 3 -92 5 -71 4 35 6 37 41 37 55 0 82 23 82 69 0 48
-17 63 -80 69 l-50 5 2 -109z m92 80 c11 -4 16 -19 16 -44 0 -42 -11 -50 -66
-50 l-34 0 0 50 0 50 34 0 c19 0 41 -3 50 -6z"/>
<path d="M1810 366 c0 -64 4 -106 10 -106 6 0 10 16 10 35 0 34 1 35 38 35 55
0 77 19 77 69 0 53 -13 63 -80 69 l-55 4 0 -106z m108 72 c7 -7 12 -24 12 -38
0 -36 -17 -50 -62 -50 l-38 0 0 50 0 50 38 0 c21 0 43 -5 50 -12z"/>
</g>
</svg>
